<svg xmlns="http://www.w3.org/2000/svg" viewBox="0 0 32 32"><path fill="#648596" d="M0 0h32v32H0z"/><path fill="#856F57" fill-rule="evenodd" d="M23 9h1v14h-1v1H9v-1H8v-4H6v-6h2V9h1V8h14z" clip-rule="evenodd"/><path fill="#000" fill-rule="evenodd" d="M9 9H8v14h1v1h1v-1H9V13h1v-2h7v1h1v-1h6V9h-1V8H9zm14 20h1v3H8v-3h1v-1h14z" clip-rule="evenodd"/><path fill="#856F57" d="M24 30H11v2h13z"/><path fill="#000" fill-rule="evenodd" d="M5 19v-6h1v6zm1-6v-1h1V9h1v4zm2-4V8h1v1zm1-1V7h14v1zm14 0h1v1h-1zm1 1h1v14h-1zm0 14v1h-1v-1zm-1 1v1H9v-1zM9 24H8v-1h1zm-1-1H7v-3H6v-1h2zm16 6h1v3h-1zm-1-1h1v1h-1zM9 28v-1h14v1zm-1 1v-1h1v1zm0 0v3H7v-3z" clip-rule="evenodd"/><path fill="#000" d="M24 22H11v1h13z"/><path fill="#000" fill-opacity=".25" d="M8 14H7v4h1z"/><path fill="#fff" fill-opacity=".25" d="M10 10H9v1h1zm1-1h-1v1h1z"/><path fill="#000" fill-rule="evenodd" d="M7 32v-3h1v-1h1v-1h14v1h1v1h1v3z" clip-rule="evenodd"/><path fill="#FFD727" d="M7 19H6v1h1z"/><path fill="#000" d="M7 20H6v1h1zm-1-1H5v1h1z"/><path fill="#ca4d11" d="M7 11V8h1V7h1V6h15v1h1v4z"/><path fill="#933607" d="M8 11V9H7V8h18v3h-1V9h-1v2h-1V9h-1v2h-1V9h-1v2h-1V9h-1v2h-1V9h-1v2h-1V9h-1v2h-1V9h-1v2h-1V9H9v2z"/><path fill="#000" d="M7 8v3H6V8zm17-1h1v1h-1zm-1-1h1v1h-1zM9 6V5h14v1zM8 7V6h1v1zM7 8V7h1v1zm18 0h1v3h-1z"/><path fill="#6a543d" d="M24 13h-6v4h6zm0 5h-6v2h6zm-7-5h-6v4h6zm0 5h-6v2h6z"/><path fill="#fff" d="M18 17h3v1h-3zm-7 0h3v1h-3z"/><path fill="#000" d="M21 17h3v1h-3zm-7 0h3v1h-3z"/><path fill="#a2a2a2" fill-rule="evenodd" d="M13 28h1v1h-1zm7 1v-1h1v1zm-6 0h2v1h-2zm4 1v-1h2v1zm-5-2h-1v-1h1zm8 0v-1h1v1zm-5 2h2v1h-2z" clip-rule="evenodd"/><path fill="#000" fill-rule="evenodd" d="M10 19v1h1v1h13v4h-1v1H9v-1H8v-7h1v1z" clip-rule="evenodd"/><path fill="#692F09" d="M23 22H12v1h11z"/><path fill="#FF74B5" fill-rule="evenodd" d="M26 26h3v-1h1v-1.002h1.004L31 21h-1v-1.001L29 20v-1h-3v1h-1v1h-1v1h-2v1h2v1h1v1h1z" clip-rule="evenodd"/><path fill="#fff" fill-rule="evenodd" d="M29 21h1v1h-1zm0 0h-1v-1h1z" clip-rule="evenodd"/><path fill="#000" fill-rule="evenodd" d="M30 20h1v1h-1zm-1-1h1v1h-1zm-4 6h-1v-1h1zm1 1h-1v-1h1zm-1-6v-1h1v1zm1-1v-1h3v1zm3 7v1h-3v-1zm2-5h1v3l-.995-.002zm-7 0v-1h1v1zm7.005 2.998V25H30v-1.002zM30 25v1h-1v-1zm-6-1h-1v-1h1zm0-3v1h-1v-1z" clip-rule="evenodd"/></svg>