<svg width="1000" height="1000" viewBox="0 0 1000 1000" fill="none" xmlns="http://www.w3.org/2000/svg">
<g clip-path="url(#clip0_948_158)">
<path d="M0 0H1000V1000H0V0Z" fill="#648596"/>
<path fill-rule="evenodd" clip-rule="evenodd" d="M718.75 281.25H750V718.75H718.75V750H281.25V718.75H250V593.75H187.5V406.25H250V281.25H281.25V250H718.75V281.25Z" fill="#856F57"/>
<path fill-rule="evenodd" clip-rule="evenodd" d="M281.25 281.25H250V718.75H281.25V750H312.5V718.75H281.25V406.25H312.5V343.75H531.25V375H562.5V343.75H750V281.25H718.75V250H281.25V281.25ZM718.75 906.25H750V1000H250V906.25H281.25V875H718.75V906.25Z" fill="black"/>
<path d="M750 937.5H343.75V1000H750V937.5Z" fill="#856F57"/>
<path fill-rule="evenodd" clip-rule="evenodd" d="M156.25 593.75V406.25H187.5V593.75H156.25ZM187.5 406.25V375H218.75V281.25H250V406.25H187.5ZM250 281.25V250H281.25V281.25H250ZM281.25 250V218.75H718.75V250H281.25ZM718.75 250H750V281.25H718.75V250ZM750 281.25H781.25V718.75H750V281.25ZM750 718.75V750H718.75V718.75H750ZM718.75 750V781.25H281.25V750H718.75ZM281.25 750H250V718.75H281.25V750ZM250 718.75H218.75V625H187.5V593.75H250V718.75ZM750 906.25H781.25V1000H750V906.25ZM718.75 875H750V906.25H718.75V875ZM281.25 875V843.75H718.75V875H281.25ZM250 906.25V875H281.25V906.25H250ZM250 906.25V1000H218.75V906.25H250Z" fill="black"/>
<path d="M750 687.5H343.75V718.75H750V687.5Z" fill="black"/>
<path d="M250 437.5H218.75V562.5H250V437.5Z" fill="black" fill-opacity="0.25"/>
<path d="M312.5 312.5H281.25V343.75H312.5V312.5ZM343.75 281.25H312.5V312.5H343.75V281.25Z" fill="white" fill-opacity="0.25"/>
<path fill-rule="evenodd" clip-rule="evenodd" d="M218.75 1000V906.25H250V875H281.25V843.75H718.75V875H750V906.25H781.25V1000H218.75Z" fill="black"/>
<path d="M218.75 593.75H187.5V625H218.75V593.75Z" fill="#FFD727"/>
<path d="M218.75 625H187.5V656.25H218.75V625ZM187.5 593.75H156.25V625H187.5V593.75Z" fill="black"/>
<path d="M218.75 343.75V250H250V218.75H281.25V187.5H750V218.75H781.25V343.75H218.75Z" fill="#CA4D11"/>
<path d="M250 343.75V281.25H218.75V250H781.25V343.75H750V281.25H718.75V343.75H687.5V281.25H656.25V343.75H625V281.25H593.75V343.75H562.5V281.25H531.25V343.75H500V281.25H468.75V343.75H437.5V281.25H406.25V343.75H375V281.25H343.75V343.75H312.5V281.25H281.25V343.75H250Z" fill="#933607"/>
<path d="M218.75 250V343.75H187.5V250H218.75ZM750 218.75H781.25V250H750V218.75ZM718.75 187.5H750V218.75H718.75V187.5ZM281.25 187.5V156.25H718.75V187.5H281.25ZM250 218.75V187.5H281.25V218.75H250ZM218.75 250V218.75H250V250H218.75ZM781.25 250H812.5V343.75H781.25V250Z" fill="black"/>
<path d="M750 406.25H562.5V531.25H750V406.25ZM750 562.5H562.5V625H750V562.5ZM531.25 406.25H343.75V531.25H531.25V406.25ZM531.25 562.5H343.75V625H531.25V562.5Z" fill="#6A543D"/>
<path d="M562.5 531.25H656.25V562.5H562.5V531.25ZM343.75 531.25H437.5V562.5H343.75V531.25Z" fill="white"/>
<path d="M656.25 531.25H750V562.5H656.25V531.25ZM437.5 531.25H531.25V562.5H437.5V531.25Z" fill="black"/>
<path fill-rule="evenodd" clip-rule="evenodd" d="M406.25 875H437.5V906.25H406.25V875ZM625 906.25V875H656.25V906.25H625ZM437.5 906.25H500V937.5H437.5V906.25ZM562.5 937.5V906.25H625V937.5H562.5ZM406.25 875H375V843.75H406.25V875ZM656.25 875V843.75H687.5V875H656.25ZM500 937.5H562.5V968.75H500V937.5Z" fill="#A2A2A2"/>
<path fill-rule="evenodd" clip-rule="evenodd" d="M312.5 593.75V625H343.75V656.25H750V781.25H718.75V812.5H281.25V781.25H250V562.5H281.25V593.75H312.5Z" fill="black"/>
<path d="M718.75 687.5H375V718.75H718.75V687.5Z" fill="#692F09"/>
<path fill-rule="evenodd" clip-rule="evenodd" d="M812.5 812.5H906.25V781.25H937.5V749.937H968.875L968.75 656.25H937.5V624.969L906.25 625V593.75H812.5V625H781.25V656.25H750V687.5H687.5V718.75H750V750H781.25V781.25H812.5V812.5Z" fill="#FF74B5"/>
<path fill-rule="evenodd" clip-rule="evenodd" d="M906.25 656.25H937.5V687.5H906.25V656.25ZM906.25 656.25H875V625H906.25V656.25Z" fill="white"/>
<path fill-rule="evenodd" clip-rule="evenodd" d="M937.5 625H968.75V656.25H937.5V625ZM906.25 593.75H937.5V625H906.25V593.75ZM781.25 781.25H750V750H781.25V781.25ZM812.5 812.5H781.25V781.25H812.5V812.5ZM781.25 625V593.75H812.5V625H781.25ZM812.5 593.75V562.5H906.25V593.75H812.5ZM906.25 812.5V843.75H812.5V812.5H906.25ZM968.75 656.25H1000V750L968.906 749.937L968.75 656.25ZM750 656.25V625H781.25V656.25H750ZM968.906 749.937V781.25H937.5V749.937H968.906ZM937.5 781.25V812.5H906.25V781.25H937.5ZM750 750H718.75V718.75H750V750ZM750 656.25V687.5H718.75V656.25H750Z" fill="black"/>
</g>
<defs>
<clipPath id="clip0_948_158">
<rect width="1000" height="1000" fill="white"/>
</clipPath>
</defs>
</svg>
